<svg width="53" height="35" viewBox="0 0 53 35" fill="none" xmlns="http://www.w3.org/2000/svg">
<circle cx="52" cy="25" r="1" fill="#9F35F2"/>
<path d="M4.23733 14.6765L9.69558 24.4439L15.1538 14.6765L16.3987 26H18.4336L16.3987 8.40433L9.69558 20.5418L2.99246 8.40433L0.957588 26H2.99246L4.23733 14.6765ZM25.4376 26.2394C26.6186 26.2394 27.6401 26.008 28.5019 25.5451C29.3797 25.0664 30.1058 24.3641 30.6804 23.4385L29.1243 22.4569C28.7253 23.1272 28.2385 23.63 27.664 23.9651C27.0894 24.2843 26.4271 24.4439 25.677 24.4439C24.9269 24.4439 24.2885 24.2843 23.7618 23.9651C23.2352 23.6459 22.8362 23.1831 22.5648 22.5766C22.2935 21.9702 22.1579 21.236 22.1579 20.3742C22.1738 19.5283 22.3175 18.8181 22.5888 18.2435C22.8761 17.653 23.2751 17.2062 23.7858 16.9029C24.3124 16.5837 24.9428 16.4241 25.677 16.4241C26.2994 16.4241 26.8421 16.5598 27.3049 16.8311C27.7677 17.1024 28.1268 17.4775 28.3822 17.9563C28.6535 18.4351 28.7892 19.0016 28.7892 19.656C28.7892 19.7677 28.7652 19.9113 28.7173 20.0869C28.6695 20.2465 28.6216 20.3662 28.5737 20.446L29.3398 19.3448H21.4397V20.9727H30.848C30.848 20.9407 30.848 20.8689 30.848 20.7572C30.8639 20.6295 30.8719 20.5098 30.8719 20.3981C30.8719 19.233 30.6644 18.2276 30.2495 17.3817C29.8345 16.5358 29.236 15.8895 28.454 15.4426C27.6879 14.9798 26.7623 14.7483 25.677 14.7483C24.5917 14.7483 23.6341 14.9877 22.8042 15.4665C21.9903 15.9453 21.3519 16.6156 20.8891 17.4775C20.4422 18.3393 20.2188 19.3448 20.2188 20.4939C20.2188 21.627 20.4342 22.6245 20.8651 23.4863C21.312 24.3482 21.9264 25.0265 22.7085 25.5212C23.5065 26 24.4162 26.2394 25.4376 26.2394ZM37.7581 26.2394C38.9392 26.2394 39.9606 26.008 40.8224 25.5451C41.7002 25.0664 42.4264 24.3641 43.0009 23.4385L41.4448 22.4569C41.0458 23.1272 40.5591 23.63 39.9845 23.9651C39.41 24.2843 38.7476 24.4439 37.9975 24.4439C37.2474 24.4439 36.609 24.2843 36.0823 23.9651C35.5557 23.6459 35.1567 23.1831 34.8854 22.5766C34.614 21.9702 34.4784 21.236 34.4784 20.3742C34.4943 19.5283 34.638 18.8181 34.9093 18.2435C35.1966 17.653 35.5956 17.2062 36.1063 16.9029C36.633 16.5837 37.2634 16.4241 37.9975 16.4241C38.62 16.4241 39.1626 16.5598 39.6254 16.8311C40.0883 17.1024 40.4474 17.4775 40.7027 17.9563C40.974 18.4351 41.1097 19.0016 41.1097 19.656C41.1097 19.7677 41.0857 19.9113 41.0379 20.0869C40.99 20.2465 40.9421 20.3662 40.8942 20.446L41.6603 19.3448H33.7602V20.9727H43.1685C43.1685 20.9407 43.1685 20.8689 43.1685 20.7572C43.1845 20.6295 43.1924 20.5098 43.1924 20.3981C43.1924 19.233 42.985 18.2276 42.57 17.3817C42.1551 16.5358 41.5566 15.8895 40.7745 15.4426C40.0085 14.9798 39.0828 14.7483 37.9975 14.7483C36.9123 14.7483 35.9547 14.9877 35.1248 15.4665C34.3108 15.9453 33.6724 16.6156 33.2096 17.4775C32.7627 18.3393 32.5393 19.3448 32.5393 20.4939C32.5393 21.627 32.7547 22.6245 33.1856 23.4863C33.6325 24.3482 34.247 25.0265 35.029 25.5212C35.827 26 36.7367 26.2394 37.7581 26.2394ZM44.1416 14.9877V16.7832H49.6477V14.9877H44.1416ZM45.9371 11.1574V26H47.8523V11.1574H45.9371Z" fill="white"/>
<path d="M3.5 3L9.5 16L16 3" stroke="#9F35F2" stroke-width="2"/>
</svg>
